Coordinates
version=1
nRows=11
nColumns=36
inDegrees=yes

Units are S.I. units (second, meters, Newtons, ...)
If the header above contains a line with 'inDegrees', this indicates whether rotational values are in degrees (yes) or radians (no).

endheader
time	pelvis_tilt	pelvis_list	pelvis_rotation	pelvis_tx	pelvis_ty	pelvis_tz	hip_flexion_r	hip_adduction_r	hip_rotation_r	knee_angle_r	knee_angle_r_beta	ankle_angle_r	subtalar_angle_r	mtp_angle_r	hip_flexion_l	hip_adduction_l	hip_rotation_l	knee_angle_l	knee_angle_l_beta	ankle_angle_l	subtalar_angle_l	mtp_angle_l	lumbar_extension	lumbar_bending	lumbar_rotation	arm_flex_r	arm_add_r	arm_rot_r	elbow_flex_r	pro_sup_r	arm_flex_l	arm_add_l	arm_rot_l	elbow_flex_l	pro_sup_l
      1.43333330	     -9.04362608	     -1.67159861	      4.85749153	     -0.10629796	      1.21641987	      0.36385214	     17.75301337	      0.22118745	     -1.38810207	     16.05606665	      0.28023123	     11.08068465	     -5.43154869	     -7.49999987	     12.83038370	     -1.84179192	     -8.88600061	      8.88407741	      0.15505640	      6.99882631	     -5.34890670	     -7.49999987	    -13.21575188	     -0.56073892	     -0.90574626	     -8.92428879	    -30.43830735	    120.22882377	     45.63027026	     29.16848547	    -18.90207785	    -28.38259030	     66.25994629	     28.88425648	     76.34573841
      1.45000000	     -9.12384389	     -1.64594445	      4.85310591	     -0.09884793	      1.21622904	      0.36000633	     17.91987752	      0.17542680	     -1.84855880	     16.68838708	      0.29126730	     11.78078200	     -5.12471685	     -7.49999987	     12.84803993	     -1.77435862	     -8.90828130	      9.01374154	      0.15731947	      7.26655404	     -5.25302641	     -7.49999987	    -13.29674863	     -0.46167784	      1.05548830	    -11.12104219	    -31.49573661	    120.24458620	     49.35702935	     24.24472171	    -14.46557665	    -30.49871570	     90.41841445	     32.00287289	     54.92351154
      1.46666670	     -9.58644574	     -1.59319660	      4.85024650	     -0.10674368	      1.20926633	      0.36374920	     18.74175839	      0.05783594	     -2.37386055	     17.64435824	      0.30795215	     12.15270407	     -5.41717349	     -7.49999987	     13.56791722	     -1.70226430	     -8.89097833	      9.58397412	      0.16727190	      7.49629558	     -5.10562177	     -7.49999987	    -13.78282607	     -0.64408917	      1.11601360	    -11.62634181	    -32.09055365	    121.70373775	     50.99046528	     23.58329716	    -14.34136321	    -30.78998784	     96.58902477	     33.28226570	     52.75142401
      1.48333330	     -9.99002355	     -1.55582735	      4.75888487	     -0.10594505	      1.20844406	      0.36359368	     19.62824907	     -0.04134075	     -2.82528404	     18.75109118	      0.32726828	     12.55658532	     -5.56671646	     -7.49999987	     14.26914417	     -1.64920971	     -8.72974961	     10.01490190	      0.17479301	      8.16969857	     -5.06609289	     -7.49999987	    -14.37669068	     -0.91519617	      1.99818042	    -12.93535425	    -32.47551925	    121.28383629	     52.21269218	     20.08164158	    -12.92009592	    -31.10273708	    105.34999632	     34.97910742	     43.54063787
      1.50000000	    -10.36030455	     -1.45585645	      4.73607714	     -0.09693049	      1.20901276	      0.36675585	     19.95035457	     -0.15587108	     -3.04037163	     19.00026488	      0.33161718	     13.14129729	     -5.42673729	     -7.49999987	     14.69474070	     -1.50090881	     -8.68137175	     10.15990155	      0.17732373	      8.17527079	     -4.99778304	     -7.49999987	    -15.33631602	     -1.19104484	      1.61013921	    -12.94805977	    -32.87387382	    121.36233437	     52.84343000	     20.13433607	    -13.15029021	    -31.30930891	    106.12271462	     36.02731310	     43.38028368
      1.51666670	    -10.60847539	     -1.43228810	      4.79671892	     -0.09683098	      1.20287344	      0.36694760	     20.19179497	     -0.12713650	     -3.15756822	     19.36919731	      0.33805627	     13.96040790	     -5.23254570	     -7.49999987	     15.02948595	     -1.42229580	     -8.17534032	     10.36015010	      0.18081873	      7.84819978	     -5.65191480	     -7.49999987	    -16.34134897	     -1.36922811	      1.55725881	    -13.25807225	    -33.55674520	    120.25932447	     53.45303255	     23.55496061	    -13.12055043	    -32.16891301	    105.42431422	     37.60894744	     44.72257715
      1.53333330	    -10.95383114	     -1.47360639	      4.87081595	     -0.08781901	      1.20590426	      0.36977782	     20.41925402	      0.00168388	     -3.07008553	     19.71925291	      0.34416589	     14.65703363	     -5.12900138	     -7.49999987	     15.44492693	     -1.48435164	     -7.78773044	     10.60683558	      0.18512420	      8.04138050	     -5.19835174	     -7.49999987	    -17.34230982	     -1.48171068	      1.25593374	    -12.54987537	    -33.18451191	    120.04910728	     53.52781446	     23.49963214	    -12.58529958	    -31.81218274	    105.73078298	     37.77930464	     44.59982048
      1.55000000	    -10.90275663	     -1.40113142	      4.91717939	     -0.07832464	      1.20341792	      0.37238500	     20.02623246	     -0.02453787	     -3.53559396	     19.96597529	      0.34847201	     15.88879953	     -4.02115877	     -7.49999987	     15.13188827	     -1.44073834	     -7.75447511	     10.63642909	      0.18564071	      8.55097007	     -4.21211878	     -7.49999987	    -18.15460474	     -1.59235494	      2.06740883	    -12.85103780	    -32.95862610	    119.44785628	     54.04580939	     20.47903748	     -8.56456387	    -31.50465661	    116.43941521	     39.87688213	     31.92146030
      1.56666670	    -11.03696856	     -1.26953326	      4.95297933	     -0.07961642	      1.19441046	      0.37291180	     20.04679800	     -0.07768541	     -3.51803208	     20.58016474	      0.35919164	     16.76083620	     -4.23945217	     -7.49999987	     15.34070874	     -1.35192138	     -7.33930767	     11.28398473	      0.19694269	      8.89896335	     -4.10427540	     -7.49999987	    -18.96838253	     -1.77565270	      1.68236220	    -11.76210746	    -32.54851603	    119.07059330	     53.95373511	     20.89786116	     -7.89422520	    -31.14704865	    116.43900272	     40.01836207	     32.10792431
      1.58333330	    -10.78346389	     -1.18162635	      5.01548407	     -0.06979204	      1.20124945	      0.37490362	     19.45954696	     -0.11891644	     -3.66921283	     20.92582505	      0.36522455	     17.66632848	     -3.98485066	     -7.49999987	     15.04332464	     -1.35037147	     -6.91406385	     11.89023667	      0.20752378	      9.45314995	     -3.70085789	     -7.49999987	    -20.31380337	     -1.76289799	      0.81513986	    -10.14717247	    -32.38596272	    118.78477578	     53.71668360	     21.23434950	     -6.37694540	    -31.20466762	    116.29727985	     40.50966434	     31.57987487
      1.60000000	    -11.32580523	     -1.13329360	      5.15889312	     -0.07014906	      1.18190365	      0.37503721	     20.48695436	     -0.22381156	     -3.60471128	     22.62439755	      0.39487023	     18.72493288	     -4.53815711	     -7.49999987	     16.42081781	     -1.37930929	     -6.25747172	     13.86365635	      0.24196645	     10.67643327	     -3.86264185	     -7.49999987	    -20.99786184	     -1.67955100	     -0.01703669	     -8.97221630	    -31.69225689	    116.78896359	     51.79044956	     24.02062451	     -5.51118913	    -31.19187657	    113.58152986	     40.18390137	     30.10574222
